<?xml version="1.0" encoding="UTF-8"?>
<svg id="Layer_1" data-name="Layer 1" xmlns="http://www.w3.org/2000/svg" viewBox="0 0 200 200">
  <defs>
    <linearGradient
      id="gradient"
      gradienttransform="scale(1.5)"
      x1="0%"
      y1="0%"
      x2="100%"
      y2="50%"
      spreadmethod="pad">
      <stop class="gradient-stop-1" offset="0%" stop-color="tomato"/>
      <stop class="gradient-stop-2" offset="100%" stop-color="indigo"/>
    </linearGradient>
    <style>
      path {
        fill: url(#gradient);
      }
    </style>
  </defs>
  <path d="M7.98,123.26c0-12.91,4.01-25.5,11.74-36.43,2.01-2.83,4.21-5.49,6.6-7.96-3.53-17.23,.16-34.68,10.44-49.2C47.76,14.14,64.79,3.93,84.72,.91c19.01-2.88,38.99,1.12,56.26,11.27,15.71,9.23,29.4,21.47,38.53,34.46,11.15,15.86,15.02,32.23,10.89,46.09-3.23,10.83-10.95,19.14-21.73,23.38-17.25,6.79-41.06,2.51-65.31-11.74-2.52-1.48-5.11-2.71-7.74-3.69,10.72,7.88,19.98,17.08,26.74,26.7,11.15,15.86,15.02,32.23,10.89,46.09-3.23,10.83-10.95,19.14-21.73,23.38-17.25,6.79-41.06,2.51-65.31-11.74-19.18-11.27-32.59-28.94-36.79-48.48-.96-4.46-1.43-8.93-1.43-13.37Zm41.36-5.48c-.88,3.32-.96,6.8-.2,10.31,1.82,8.45,8.25,16.47,17.65,21.99,12.53,7.36,22.17,9.37,27.02,9.35-2.04-6.47-11.16-20.09-30.56-31.48-5.06-2.97-9.71-6.39-13.9-10.16Zm101.62-39.08c-2.04-6.47-11.16-20.09-30.56-31.48-18.32-10.77-40.49-8.16-50.47,5.94-1.13,1.6-2.04,3.27-2.73,4.99,.16-.02,.32-.05,.48-.07,19.01-2.88,38.99,1.12,56.26,11.27,12.53,7.36,22.17,9.37,27.02,9.36Z"/>
</svg>