<?xml version="1.0" encoding="utf-8"?>
<!-- Generator: Adobe Illustrator 26.5.0, SVG Export Plug-In . SVG Version: 6.00 Build 0)  -->
<svg version="1.1" id="Layer_1" xmlns="http://www.w3.org/2000/svg" xmlns:xlink="http://www.w3.org/1999/xlink" x="0px" y="0px"
	 viewBox="0 0 200 200" style="enable-background:new 0 0 200 200;" xml:space="preserve">
<style type="text/css">
	.st0{fill:#333333;}
	.st1{display:none;fill:#333333;}
</style>
<path class="st0" d="M8,123.3c0-12.9,4-25.5,11.7-36.4c2-2.8,4.2-5.5,6.6-8c-3.5-17.2,0.2-34.7,10.4-49.2c11-15.5,28-25.7,48-28.8
	c19-2.9,39,1.1,56.3,11.3c15.7,9.2,29.4,21.5,38.5,34.5c11.2,15.9,15,32.2,10.9,46.1c-3.2,10.8-10.9,19.1-21.7,23.4
	c-17.3,6.8-41.1,2.5-65.3-11.7c-2.5-1.5-5.1-2.7-7.7-3.7c10.7,7.9,20,17.1,26.7,26.7c11.2,15.9,15,32.2,10.9,46.1
	c-3.2,10.8-10.9,19.1-21.7,23.4c-17.3,6.8-41.1,2.5-65.3-11.7C27,173.8,13.6,156.2,9.4,136.6C8.5,132.2,8,127.7,8,123.3z
	 M49.3,117.8c-0.9,3.3-1,6.8-0.2,10.3c1.8,8.5,8.2,16.5,17.6,22c12.5,7.4,22.2,9.4,27,9.4c-2-6.5-11.2-20.1-30.6-31.5
	C58.2,125,53.5,121.6,49.3,117.8z M151,78.7c-2-6.5-11.2-20.1-30.6-31.5c-18.3-10.8-40.5-8.2-50.5,5.9c-1.1,1.6-2,3.3-2.7,5
	c0.2,0,0.3,0,0.5-0.1c19-2.9,39,1.1,56.3,11.3C136.5,76.7,146.1,78.7,151,78.7z"/>
<path class="st1" d="M128.9,190.2c-1.4,0-2.9,0-4.4-0.1c-23.3-1.4-60.8-13.6-87.2-28.5c-16.2-9.1-28.3-25.1-33.9-44.8
	C-1.9,98-1,77.4,6,58.6c8.1-21.8,23.6-38.3,42.4-45.2c16.3-6,33.8-4.4,49.2,4.3c3.5,2,7.2,3.9,11.2,5.7c3.7-2.4,7.7-4.3,11.7-5.8
	c16.3-6,33.8-4.4,49.2,4.3c9.8,5.5,35.7,20.1,29.3,42c-2.5,8.3-9.2,14.5-18.4,16.9c-4.4,1.2-9.7,1.5-16,1.2
	c-12.4-0.7-28.9-4.6-45.7-10.3c-0.9,1.7-1.7,3.5-2.4,5.4c-7.7,20.7-1.8,44.4,13,52.8c9.8,5.5,35.7,20.1,29.3,42
	c-2.4,8.3-9.2,14.5-18.4,16.9C137.1,189.7,133.3,190.2,128.9,190.2z M121.4,173.8L121.4,173.8L121.4,173.8z M68.3,50.9
	c-2,0-3.9,0.4-5.8,1.1c-7.5,2.8-14.1,10.4-18,21c-7.7,20.7-1.8,44.4,13,52.8c7.3,4.1,15.9,8.1,24.7,11.5c-2.7-5.1-4.9-10.5-6.6-16.4
	c-5.3-18.7-4.4-39.3,2.5-58.1c0.9-2.5,2-5,3.1-7.3c-1.3-0.7-2.5-1.4-3.8-2.1C74.4,51.8,71.3,50.9,68.3,50.9z M170.6,41L170.6,41z"/>
<path class="st1" d="M91.2,200c-14.4,0-27.7-3.6-37.2-12.5c-8.6-8-12.7-19.3-11.2-31c2.4-18.6,18.7-37.3,44.8-51.3
	c6-3.2,11.1-7.6,14.9-12.6c-30,13.6-67.8,18.7-88.3-0.3c-8.6-8-12.7-19.3-11.2-31C5.5,42.8,21.9,24.1,48,10.1
	C68.2-0.8,90.2-3,109.8,4c17.8,6.3,31.6,19.6,39.1,37.4c0.2,0.4,0.4,0.9,0.5,1.3c1,0.3,2.1,0.7,3.1,1c17.8,6.3,31.6,19.6,39.1,37.4
	c7.6,18.3,7.5,39.1-0.4,58.4c-7.6,18.6-21.8,34.2-40,44C133.2,193.1,111,200,91.2,200z M90.9,156.3c0,0,0.1,0,0.1,0
	c8.6,0,23.1-2.6,39.4-11.3c18.5-9.9,27.6-30.6,20.8-47c-0.3-0.8-0.7-1.6-1.1-2.4c-0.5,1.4-1,2.8-1.6,4.2c-7.6,18.6-21.8,34.2-40,44
	C99.8,148.4,94.3,152.9,90.9,156.3z M51.2,61.1c8.6,0.1,23.1-2.5,39.5-11.3c0,0,0,0,0,0c2.3-1.3,4.7-2.4,7.1-3.4
	c-0.8-0.4-1.7-0.8-2.6-1.1c-7.7-2.7-17.4-1.5-26.5,3.4C60.1,53.2,54.6,57.7,51.2,61.1z"/>
</svg>
