<svg class="zdog-canvas" width="200" height="200" viewBox="-100 -100 200 200" style="touch-action: none;">
<path stroke-linecap="round" stroke-linejoin="round" d="M20.621,35.093 C-7.576,83.08 -60.403,98.528 -100.127,70.403 C-139.851,42.279 -148.817,-16.92 -120.621,-64.906 C-92.424,-112.893 -48.618,-143.695 -20.494,-135.31 C7.631,-126.925 7.576,-83.08 -20.621,-35.093 C-48.817,12.894 -39.851,72.092 -0.127,100.217 C39.597,128.342 92.424,112.893 120.621,64.906 C148.817,16.92 148.873,-26.925 120.748,-35.31 C92.623,-43.695 48.817,-12.894 20.621,35.093 " stroke="#333" stroke-width="1" fill="none"></path>
<path stroke-linecap="round" stroke-linejoin="round" d="M-86.387,-47.989 C-130.877,-35.574 -145.477,-43.709 -119.758,-66.582 C-94.039,-89.455 -39.431,-116.902 5.059,-129.317 C49.55,-141.732 101.944,-112.602 124.817,-62.735 C147.69,-12.867 130.877,35.574 86.387,47.989 C41.896,60.404 -12.711,87.851 -38.43,110.724 C-64.15,133.597 -49.55,141.732 -5.059,129.317 C39.431,116.902 56.244,68.46 33.371,18.593 C10.498,-31.275 -41.896,-60.404 -86.387,-47.989 " stroke="#333" stroke-width="1" fill="none"></path>
<path stroke-linecap="round" stroke-linejoin="round" d="M2.542,-47.615 C-46.167,-21.432 -100.07,-15.975 -120.666,-35.14 C-141.261,-54.305 -119.395,-89.575 -70.685,-115.757 C-21.976,-141.94 30.815,-126.566 49.98,-80.618 C69.146,-34.669 46.167,21.432 -2.542,47.615 C-51.252,73.797 -73.118,109.067 -52.523,128.232 C-31.928,147.397 21.976,141.94 70.685,115.757 C119.395,89.575 142.373,33.473 123.208,-12.475 C104.043,-58.423 51.252,-73.797 2.542,-47.615 " stroke="#333" stroke-width="1" fill="none"></path>
</svg>