<svg xmlns="http://www.w3.org/2000/svg" width="33.942" height="33.941" viewBox="0 0 33.942 33.941">
  <g id="Group_53" data-name="Group 53" transform="translate(16.971 -4.243) rotate(45)">
    <path id="Union_2" data-name="Union 2" d="M-2698.5-401h-14a5.5,5.5,0,0,1-5.5-5.5,5.5,5.5,0,0,1,5.5-5.5h13a5.5,5.5,0,0,1,5.5,5.5v5.5h0v2.337A5.507,5.507,0,0,0-2698.5-401Z" transform="translate(2721 415)"/>
    <path id="Union_3" data-name="Union 3" d="M-2712.5-398.662a5.5,5.5,0,0,1-5.5-5.5V-412a5.51,5.51,0,0,0,4.5,2.337h14a5.5,5.5,0,0,1,5.5,5.5,5.5,5.5,0,0,1-5.5,5.5Z" transform="translate(2721 425.662)"/>
  </g>
</svg>
